<svg width="20" height="18" viewBox="0 0 20 18" fill="none" xmlns="http://www.w3.org/2000/svg">
<path fill-rule="evenodd" clip-rule="evenodd" d="M9.71114 5.13275L9.75449 5.84762L9.03194 5.76009C6.40184 5.42453 4.10411 4.28657 2.15321 2.37537L1.19944 1.42707L0.953773 2.12735C0.433533 3.68841 0.765908 5.337 1.84974 6.44579C2.42779 7.05854 2.29773 7.14607 1.3006 6.78134C0.953773 6.66462 0.6503 6.57709 0.621397 6.62086C0.52024 6.72298 0.867066 8.05061 1.14164 8.57582C1.51737 9.30529 2.28327 10.0202 3.12144 10.4433L3.82954 10.7788L2.99138 10.7934C2.18212 10.7934 2.15321 10.808 2.23992 11.1144C2.52894 12.0627 3.67058 13.0693 4.94228 13.507L5.83825 13.8134L5.05789 14.2802C3.9018 14.9513 2.54339 15.3307 1.18499 15.3598C0.534691 15.3744 0 15.4328 0 15.4766C0 15.6225 1.76303 16.4395 2.78906 16.7604C5.86715 17.7087 9.52328 17.3002 12.269 15.6808C14.2199 14.5283 16.1708 12.2377 17.0812 10.0202C17.5725 8.83843 18.0639 6.67921 18.0639 5.64337C18.0639 4.97227 18.1072 4.88473 18.9165 4.08232C19.3934 3.61546 19.8414 3.10484 19.9281 2.95894C20.0726 2.68175 20.0581 2.68175 19.3211 2.92976C18.0928 3.36744 17.9194 3.30909 18.5263 2.65257C18.9743 2.18571 19.509 1.33953 19.509 1.09151C19.509 1.04774 19.2922 1.12069 19.0466 1.25199C18.7864 1.39789 18.2084 1.61673 17.7749 1.74803L16.9945 1.99605L16.2864 1.5146C15.8962 1.25199 15.3471 0.960208 15.058 0.872673C14.321 0.668422 13.1939 0.697601 12.5291 0.93103C10.7227 1.58755 9.58108 3.27991 9.71114 5.13275Z" fill="black"/>
</svg>
