<svg width="20" height="16" viewBox="0 0 20 16" fill="none" xmlns="http://www.w3.org/2000/svg">
<path fill-rule="evenodd" clip-rule="evenodd" d="M17.8137 1.24166C18.6743 1.47781 19.352 2.1736 19.582 3.0572C20 4.65862 20 8 20 8C20 8 20 11.3413 19.582 12.9428C19.352 13.8264 18.6743 14.5222 17.8137 14.7585C16.2542 15.1875 10 15.1875 10 15.1875C10 15.1875 3.7458 15.1875 2.18614 14.7585C1.32557 14.5222 0.647841 13.8264 0.417841 12.9428C0 11.3413 0 8 0 8C0 8 0 4.65862 0.417841 3.0572C0.647841 2.1736 1.32557 1.47781 2.18614 1.24166C3.7458 0.8125 10 0.8125 10 0.8125C10 0.8125 16.2542 0.8125 17.8137 1.24166ZM8.12502 5.18743V11.4374L13.125 8.31255L8.12502 5.18743Z" fill="black"/>
</svg>
